<svg fill="none" xmlns="http://www.w3.org/2000/svg">

  <symbol id="logo-github" viewBox="0 0 30 29" fill="none">
    <path fill-rule="evenodd" clip-rule="evenodd" d="M14.9553 0C6.68541 0 0 6.64583 0 14.8676C0 21.4398 4.28357 27.0029 10.226 28.9719C10.969 29.1199 11.2411 28.652 11.2411 28.2584C11.2411 27.9137 11.2166 26.7323 11.2166 25.5013C7.05643 26.3876 6.1901 23.7289 6.1901 23.7289C5.52153 22.0059 4.53092 21.563 4.53092 21.563C3.16929 20.6522 4.6301 20.6522 4.6301 20.6522C6.14051 20.7507 6.93306 22.1784 6.93306 22.1784C8.2699 24.4428 10.4241 23.803 11.2907 23.409C11.4144 22.449 11.8108 21.7844 12.2317 21.4153C8.91367 21.0706 5.42265 19.7907 5.42265 14.0798C5.42265 12.4552 6.01653 11.126 6.95755 10.0923C6.80908 9.72316 6.28898 8.19673 7.10633 6.15374C7.10633 6.15374 8.36908 5.75982 11.2163 7.67986C12.4353 7.35442 13.6925 7.18886 14.9553 7.18747C16.2181 7.18747 17.5053 7.35996 18.694 7.67986C21.5415 5.75982 22.8043 6.15374 22.8043 6.15374C23.6216 8.19673 23.1012 9.72316 22.9528 10.0923C23.9186 11.126 24.488 12.4552 24.488 14.0798C24.488 19.7907 20.9969 21.0458 17.6541 21.4153C18.199 21.8829 18.6692 22.7689 18.6692 24.1721C18.6692 26.1659 18.6447 27.766 18.6447 28.2581C18.6447 28.652 18.9171 29.1199 19.6598 28.9722C25.6022 27.0026 29.8858 21.4398 29.8858 14.8676C29.9103 6.64583 23.2004 0 14.9553 0Z" fill="currentColor"/>
  </symbol>
  
</svg>
